<svg width="64" height="64" viewBox="0 0 512 512" fill="none" xmlns="http://www.w3.org/2000/svg" role="img" aria-label="Bowl Food Logo">
  <defs>
    <linearGradient id="bowl-grad" x1="64" y1="448" x2="448" y2="64" gradientUnits="userSpaceOnUse">
      <stop stop-color="#FF7A18" />
      <stop offset="1" stop-color="#FFD166" />
    </linearGradient>
    <linearGradient id="bowl-rim" x1="96" y1="320" x2="416" y2="208" gradientUnits="userSpaceOnUse">
      <stop stop-color="#FFE7C2" />
      <stop offset="1" stop-color="#FFF2DF" />
    </linearGradient>
  </defs>
  <rect x="24" y="24" width="464" height="464" rx="112" fill="#161616" />
  <rect x="36" y="36" width="440" height="440" rx="104" fill="url(#bowl-grad)" />
  <path
    fill="url(#bowl-rim)"
    d="M0 176c0-35.3 28.7-64 64-64 .5 0 1.1 0 1.6 0 7.4-36.5 39.7-64 78.4-64 15 0 29 4.1 40.9 11.2 13.3-25.7 40.1-43.2 71.1-43.2s57.8 17.6 71.1 43.2c12-7.1 26-11.2 40.9-11.2 38.7 0 71 27.5 78.4 64 .5 0 1.1 0 1.6 0 35.3 0 64 28.7 64 64 0 11.7-3.1 22.6-8.6 32L8.6 208C3.1 198.6 0 187.7 0 176z"
  />
  <path
    fill="#402312"
    d="M0 283.4C0 268.3 12.3 256 27.4 256h457.1c15.1 0 27.4 12.3 27.4 27.4 0 70.5-44.4 130.7-106.7 154.1l-1.3 10.5c-2 16-15.6 28-31.8 28H141.6c-16.1 0-29.8-12-31.8-28l-1.8-14.4C44.4 414.1 0 353.9 0 283.4z"
  />
  <path
    fill="#FFEDD5"
    d="M51 224c-8.3 0-15 6.7-15 15s6.7 15 15 15h410c8.3 0 15-6.7 15-15s-6.7-15-15-15H51z"
  />
</svg>
